<?xml version="1.0" encoding="utf-8"?>
<!-- Generator: Adobe Illustrator 20.1.0, SVG Export Plug-In . SVG Version: 6.00 Build 0)  -->
<svg version="1.1" id="Layer_1" xmlns="http://www.w3.org/2000/svg" xmlns:xlink="http://www.w3.org/1999/xlink" x="0px" y="0px"
	 viewBox="0 0 36.6 36.6" style="enable-background:new 0 0 36.6 36.6;" xml:space="preserve">
<style type="text/css">
	.st0{fill:none;stroke:#222222;stroke-width:2;}
	.st1{fill:#FFFFFF;stroke:#C03440;stroke-width:0.1561;}
	.st2{fill:none;stroke:#222222;stroke-width:1.5;}
	.st3{fill:none;stroke:#222222;}
	.st4{fill:none;stroke:#222222;stroke-width:1.3;}
	.st5{fill:none;stroke:#222222;stroke-width:1.192;}
	.st6{fill:none;stroke:#222222;stroke-width:0.8826;}
	.st7{fill:none;stroke:#222222;stroke-width:1.2;}
	.st8{fill:#C03440;}
</style>
<circle class="st0" cx="18.3" cy="18.3" r="17.3"/>
<path class="st1" d="M14,20.3"/>
<path class="st2" d="M28.6,21.6c0-2.3,0-14.3,0-14.3H8c0,0,0,11.7,0,14c0,7.9,10.3,12.3,10.3,12.3S28.6,29.2,28.6,21.6z"/>
<path class="st3" d="M13.5,14.7c0,0-1.1-0.7-1.9-1.2c-0.7-0.5-0.7-0.9-0.8-1c0-0.1,0-3.7,0-3.7h5.3c0,0,0,3.6,0,3.7s0,0.5-0.7,1
	C14.8,14.1,13.5,14.7,13.5,14.7z"/>
<path class="st3" d="M23.3,14.7c0,0-1.1-0.7-1.9-1.2c-0.7-0.5-0.7-0.9-0.8-1c0-0.1,0-3.7,0-3.7H26c0,0,0,3.6,0,3.7s0,0.5-0.7,1
	C24.6,14.1,23.3,14.7,23.3,14.7z"/>
<line class="st4" x1="7.5" y1="16.2" x2="29.2" y2="16.2"/>
<g>
	<g>
		<path class="st5" d="M18.3,19.1c0,0,0-0.3,0.6-0.4c0,0,0.6-0.1,1.2,0c0.9,0.1,1.6,0.2,2.2,0.2c0.8,0,1.3,0,1.7,0v8.9
			c0,0-0.6,0-1.3,0c-1.5,0-2.1-0.2-3.3-0.2c-0.7,0-0.8,0.6-1.1,0.6c-0.3,0-0.3-0.6-1-0.6c-1.2,0-1.8,0.2-3.3,0.2c-0.8,0-1.3,0-1.3,0
			v-8.9c0.4,0,0.9,0,1.7,0c0.6,0,1.3-0.1,2.2-0.2c0.6-0.1,1.2,0,1.2,0C18.3,18.8,18.3,19.1,18.3,19.1"/>
	</g>
</g>
<line class="st6" x1="10.9" y1="10.8" x2="16.2" y2="10.8"/>
<line class="st7" x1="18.4" y1="15.9" x2="18.4" y2="33.7"/>
<polyline class="st6" points="25.8,12 23.3,10.3 20.9,12 "/>
<path class="st8" d="M23.2,12.5"/>
<line class="st6" x1="14" y1="20.9" x2="16.6" y2="20.9"/>
<line class="st6" x1="14" y1="23" x2="16.6" y2="23"/>
<line class="st6" x1="14" y1="25.1" x2="16.6" y2="25.1"/>
<line class="st6" x1="19.7" y1="20.9" x2="22.4" y2="20.9"/>
<line class="st6" x1="19.7" y1="23" x2="22.4" y2="23"/>
<line class="st6" x1="19.7" y1="25.1" x2="22.4" y2="25.1"/>
</svg>
