<?xml version="1.0" encoding="utf-8"?>
<!-- Generator: Adobe Illustrator 16.0.4, SVG Export Plug-In . SVG Version: 6.00 Build 0)  -->
<!DOCTYPE svg PUBLIC "-//W3C//DTD SVG 1.1//EN" "http://www.w3.org/Graphics/SVG/1.1/DTD/svg11.dtd">
<svg version="1.1" id="Layer_1" xmlns="http://www.w3.org/2000/svg" xmlns:xlink="http://www.w3.org/1999/xlink" x="0px" y="0px"
	 width="36.6264648px" height="36.6308594px" viewBox="0 0 36.6264648 36.6308594"
	 enable-background="new 0 0 36.6264648 36.6308594" xml:space="preserve">
<circle fill="none" stroke="#FFFFFF" stroke-width="2" cx="18.3132324" cy="18.3168945" r="17.3132324"/>
<path fill="#FFFFFF" stroke="#C03440" stroke-width="0.15615" d="M13.9985352,20.3261719"/>
<path fill="none" stroke="#FFFFFF" stroke-width="1.5" d="M28.6201172,21.6445312
	c0-2.34375-0.0019531-14.2988281-0.0019531-14.2988281L7.9902344,7.3466797c0,0-0.0009766,11.6982422-0.0009766,14.0400391
	c0,7.8554688,10.328125,12.2851562,10.328125,12.2851562S28.6201172,29.1640625,28.6201172,21.6445312z"/>
<path fill="none" stroke="#FFFFFF" d="M13.5380859,14.7382812c0,0-1.1333008-0.6621094-1.8730469-1.1582031
	c-0.7402344-0.4951172-0.7446289-0.8720703-0.7514648-0.96875c-0.0078125-0.0966797-0.0043945-3.6816406-0.0043945-3.6816406
	h5.2890625c0,0,0.0078125,3.5849609,0,3.6816406s0.0380859,0.4736328-0.7021484,0.96875
	C14.7558594,14.0761719,13.5380859,14.7382812,13.5380859,14.7382812z"/>
<path fill="none" stroke="#FFFFFF" d="M23.3481445,14.7138672c0,0-1.1328125-0.6621094-1.8720703-1.1572266
	c-0.7407227-0.4970703-0.7451172-0.8730469-0.7529297-0.96875c-0.0083008-0.0966797-0.0039062-3.6826172-0.0039062-3.6826172
	h5.2895508c0,0,0.0078125,3.5859375,0,3.6826172c-0.0078125,0.0957031,0.0366211,0.4716797-0.7021484,0.96875
	C24.5673828,14.0517578,23.3481445,14.7138672,23.3481445,14.7138672z"/>
<line fill="none" stroke="#FFFFFF" stroke-width="1.3000001" x1="7.5419922" y1="16.2480469" x2="29.1860352" y2="16.2480469"/>
<g>
	<g>
		<path fill="none" stroke="#FFFFFF" stroke-width="1.19205" d="M18.293457,19.0605469c0,0,0.0405273-0.3061523,0.6083984-0.4389648
			c0,0,0.5556641-0.1152344,1.1757812-0.0488281c0.90625,0.0820312,1.6313477,0.1875,2.2299805,0.2006836
			c0.7998047,0.0195312,1.3251953,0.0058594,1.7104492,0.015625v8.921875c0,0-0.5888672,0.03125-1.3432617,0.015625
			c-1.5415039-0.0371094-2.1225586-0.1972656-3.3344727-0.1933594c-0.7216797,0-0.7836914,0.5800781-1.0556641,0.5800781
			c-0.2724609,0-0.3012695-0.5800781-1.012207-0.5800781c-1.2114258-0.0039062-1.7919922,0.15625-3.3344727,0.1933594
			c-0.7553711,0.015625-1.3442383-0.015625-1.3442383-0.015625l0.0019531-8.921875
			c0.3842773-0.0097656,0.9086914,0.0039062,1.7094727-0.015625c0.5986328-0.0131836,1.3237305-0.1186523,2.2299805-0.2006836
			c0.6196289-0.0664062,1.1757812,0.0488281,1.1757812,0.0488281c0.565918,0.1328125,0.6074219,0.4389648,0.6074219,0.4389648"/>
	</g>
</g>
<line fill="#C03440" stroke="#FFFFFF" stroke-width="0.88263" x1="10.9116211" y1="10.8261719" x2="16.1577148" y2="10.8261719"/>
<line fill="#C03440" stroke="#FFFFFF" stroke-width="1.2" x1="18.3876953" y1="15.8886719" x2="18.3876953" y2="33.7382812"/>
<polyline fill="none" stroke="#FFFFFF" stroke-width="0.88263" points="25.8432617,12.0214844 23.2568359,10.296875 
	20.8696289,12.0214844 "/>
<path fill="#C03440" d="M23.2016602,12.4921875"/>
<line fill="#C03440" stroke="#FFFFFF" stroke-width="0.88263" x1="14.0019531" y1="20.9335938" x2="16.6352539" y2="20.9335938"/>
<line fill="#C03440" stroke="#FFFFFF" stroke-width="0.88263" x1="14.0019531" y1="23.0234375" x2="16.6352539" y2="23.0234375"/>
<line fill="#C03440" stroke="#FFFFFF" stroke-width="0.88263" x1="14.0019531" y1="25.1152344" x2="16.6352539" y2="25.1152344"/>
<line fill="#C03440" stroke="#FFFFFF" stroke-width="0.88263" x1="19.7333984" y1="20.9335938" x2="22.3666992" y2="20.9335938"/>
<line fill="#C03440" stroke="#FFFFFF" stroke-width="0.88263" x1="19.7333984" y1="23.0234375" x2="22.3666992" y2="23.0234375"/>
<line fill="#C03440" stroke="#FFFFFF" stroke-width="0.88263" x1="19.7333984" y1="25.1152344" x2="22.3666992" y2="25.1152344"/>
</svg>
