<svg id="Layer_1" data-name="Layer 1" xmlns="http://www.w3.org/2000/svg" viewBox="0 0 119.88 119.88"><defs><style>.cls-1,.cls-2,.cls-3,.cls-4,.cls-6,.cls-7,.cls-8{fill:none;stroke:#fff;}.cls-1{stroke-width:1.25px;}.cls-2{stroke-miterlimit:10;}.cls-2,.cls-3{stroke-width:1.27px;}.cls-4{stroke-width:0.63px;}.cls-5{fill:#fff;}.cls-6{stroke-width:0.95px;}.cls-7{stroke-width:0.32px;}.cls-8{stroke-width:0.48px;}</style></defs><title>mann-logo-white@2x</title><path class="cls-1" d="M246.74,395.77a59.32,59.32,0,1,1,59.32,59.32,59.32,59.32,0,0,1-59.32-59.32Z" transform="translate(-246.12 -335.83)"/><path class="cls-2" d="M311.83,454.62a1.49,1.49,0,0,0,1.53-1.44h0a1.49,1.49,0,0,0-1.53-1.44H300.21a1.49,1.49,0,0,0-1.53,1.44h0a1.49,1.49,0,0,0,1.53,1.44Z" transform="translate(-246.12 -335.83)"/><path class="cls-3" d="M300.75,422.5c3.79-4.66,6.83-4.64,10.48.34" transform="translate(-246.12 -335.83)"/><path class="cls-3" d="M302.24,421.75c-4.89-4.52-17-3.4-8.22.8" transform="translate(-246.12 -335.83)"/><path class="cls-4" d="M319.14,422.17" transform="translate(-246.12 -335.83)"/><path class="cls-4" d="M311.23,421.88" transform="translate(-246.12 -335.83)"/><path class="cls-2" d="M300.9,451.77c-8.07-3.79,7.21-21.51-7.7-29.7h0c11.36-3.62,12.86,8.78,12.86,21,0-12.22,1.24-24.67,13-20.88h0c-14.91,8.19.37,25.79-7.7,29.58" transform="translate(-246.12 -335.83)"/><path class="cls-3" d="M310.19,421.75c4.89-4.52,17-3.4,8.22.8" transform="translate(-246.12 -335.83)"/><path class="cls-5" d="M247.37,399.29c2.93.12,2.81,7.95,8.31,6.11l.38,0c-2.93-.12-2.81-7.95-8.31-6.11l-.38,0Z" transform="translate(-246.12 -335.83)"/><path class="cls-5" d="M253.74,399.36c2.9.47,1.84,8.22,7.52,7.06l.37.06c-2.9-.47-1.84-8.22-7.52-7.06l-.37-.07Z" transform="translate(-246.12 -335.83)"/><path class="cls-5" d="M259.76,400.45c2.83.79.93,8.38,6.7,7.84l.36.11c-2.83-.79-.93-8.38-6.7-7.84l-.36-.11Z" transform="translate(-246.12 -335.83)"/><path class="cls-5" d="M266.28,402.36c2.67,1.22-.39,8.42,5.4,8.79l.34.16c-2.67-1.22.39-8.42-5.4-8.79l-.34-.16Z" transform="translate(-246.12 -335.83)"/><path class="cls-5" d="M272.32,405.53c2.57,1.42-1,8.37,4.72,9.17l.33.19c-2.57-1.42,1-8.37-4.72-9.17l-.33-.19Z" transform="translate(-246.12 -335.83)"/><path class="cls-5" d="M277.8,410c2.16,1.52-1.75,7.38,3.31,8.68l.28.2c-2.16-1.52,1.75-7.38-3.31-8.68l-.28-.2Z" transform="translate(-246.12 -335.83)"/><path class="cls-5" d="M282.57,414.49c1.69,1.51-2.21,6.11,2,7.72l.22.2c-1.69-1.51,2.21-6.11-2-7.71l-.22-.2Z" transform="translate(-246.12 -335.83)"/><path class="cls-5" d="M286.24,419.39c1.5,1.55-2.52,5.64,1.32,7.45l.19.2c-1.5-1.55,2.52-5.64-1.32-7.45l-.19-.2Z" transform="translate(-246.12 -335.83)"/><path class="cls-5" d="M289.54,424.66c1.18,1.55-2.86,4.79.4,6.81l.15.2c-1.18-1.55,2.86-4.79-.4-6.81l-.15-.2Z" transform="translate(-246.12 -335.83)"/><path class="cls-5" d="M292.07,430.16c.89,1.51-3.06,4-.37,6.13l.11.2c-.89-1.51,3.06-4,.37-6.13l-.11-.2Z" transform="translate(-246.12 -335.83)"/><path class="cls-5" d="M294,435.26c.66,1.43-3.09,3.29-.87,5.46l.08.18c-.66-1.43,3.09-3.29.87-5.46l-.08-.18Z" transform="translate(-246.12 -335.83)"/><path class="cls-5" d="M295.15,440.18c.66,1.43-3.09,3.29-.87,5.46l.08.19c-.66-1.43,3.09-3.29.87-5.46l-.08-.18Z" transform="translate(-246.12 -335.83)"/><path class="cls-5" d="M296.34,445.37c.34,1.37-3.29,2.38-1.7,4.68l0,.18c-.34-1.37,3.29-2.38,1.7-4.68l0-.18Z" transform="translate(-246.12 -335.83)"/><path class="cls-5" d="M286.83,435c.56,1.66,5,.29,4.87,3.74l.07.21c-.56-1.66-5-.29-4.87-3.74l-.07-.21Z" transform="translate(-246.12 -335.83)"/><path class="cls-5" d="M288.88,439.24c.41,1.52,4.48.53,4.18,3.62l.06.19c-.41-1.52-4.48-.53-4.18-3.62l-.06-.19Z" transform="translate(-246.12 -335.83)"/><path class="cls-5" d="M290.39,444.09c.37,1.37,4,.48,3.76,3.26l0,.18c-.37-1.37-4-.48-3.76-3.26l0-.18Z" transform="translate(-246.12 -335.83)"/><path class="cls-5" d="M292,449.67c.31,1.24,3.62.5,3.33,3l0,.16c-.31-1.24-3.62-.5-3.33-3l0-.16Z" transform="translate(-246.12 -335.83)"/><path class="cls-5" d="M274.47,420c1.65,1.37,5.4-2.92,7.48.76l.21.17c-1.65-1.37-5.4,2.92-7.48-.76l-.21-.17Z" transform="translate(-246.12 -335.83)"/><path class="cls-5" d="M278.07,423.47c1.38,1.51,5.48-2.06,7,1.69l.18.19c-1.38-1.51-5.48,2.06-7-1.69l-.18-.19Z" transform="translate(-246.12 -335.83)"/><path class="cls-5" d="M281.28,427.22c1.21,1.51,5.32-1.61,6.5,2l.16.19c-1.21-1.51-5.32,1.61-6.5-2l-.16-.19Z" transform="translate(-246.12 -335.83)"/><path class="cls-5" d="M284.31,431.28c1,1.45,4.91-1,5.68,2.34l.13.19c-1-1.45-4.91,1-5.68-2.34l-.13-.19Z" transform="translate(-246.12 -335.83)"/><path class="cls-5" d="M255.09,413.93c2.93.2,3.66-7.59,8.93-5.17l.38,0c-2.93-.2-3.66,7.59-8.93,5.17l-.38,0Z" transform="translate(-246.12 -335.83)"/><path class="cls-5" d="M260.45,414.66c2.6.48,4.06-6.41,8.52-3.69l.34.06c-2.6-.48-4.06,6.41-8.52,3.69l-.34-.06Z" transform="translate(-246.12 -335.83)"/><path class="cls-5" d="M265.43,416.23c2.28.66,4.21-5.37,8-2.55l.3.08c-2.28-.66-4.21,5.37-8,2.55l-.3-.08Z" transform="translate(-246.12 -335.83)"/><path class="cls-5" d="M249.71,413.68c2.93-.22,2.54-8,8.1-6.4l.38,0c-2.93.22-2.54,8-8.1,6.4l-.38,0Z" transform="translate(-246.12 -335.83)"/><path class="cls-5" d="M270.23,417.9c1.92.94,4.56-4.11,7.45-1l.25.12c-1.92-.94-4.56,4.11-7.45,1l-.25-.12Z" transform="translate(-246.12 -335.83)"/><path class="cls-5" d="M365.08,399.29c-2.93.12-2.81,7.95-8.31,6.11l-.38,0c2.93-.12,2.81-7.95,8.31-6.11l.38,0Z" transform="translate(-246.12 -335.83)"/><path class="cls-5" d="M358.72,399.36c-2.9.47-1.84,8.22-7.52,7.06l-.37.06c2.9-.47,1.84-8.22,7.52-7.06l.37-.07Z" transform="translate(-246.12 -335.83)"/><path class="cls-5" d="M352.7,400.45c-2.83.79-.93,8.38-6.7,7.84l-.36.11c2.83-.79.93-8.38,6.7-7.84l.36-.11Z" transform="translate(-246.12 -335.83)"/><path class="cls-5" d="M346.17,402.36c-2.67,1.22.39,8.42-5.4,8.79l-.34.16c2.67-1.22-.39-8.42,5.4-8.79l.34-.16Z" transform="translate(-246.12 -335.83)"/><path class="cls-5" d="M340.13,405.53c-2.57,1.42,1,8.37-4.72,9.17l-.33.19c2.57-1.42-1-8.37,4.72-9.17l.33-.19Z" transform="translate(-246.12 -335.83)"/><path class="cls-5" d="M334.65,410c-2.16,1.52,1.75,7.38-3.31,8.68l-.28.2c2.16-1.52-1.75-7.38,3.31-8.68l.28-.2Z" transform="translate(-246.12 -335.83)"/><path class="cls-5" d="M329.89,414.49c-1.69,1.51,2.21,6.11-2,7.72l-.22.2c1.69-1.51-2.21-6.11,2-7.71l.22-.2Z" transform="translate(-246.12 -335.83)"/><path class="cls-5" d="M326.22,419.39c-1.5,1.55,2.52,5.64-1.32,7.45l-.19.2c1.5-1.55-2.52-5.64,1.32-7.45l.19-.2Z" transform="translate(-246.12 -335.83)"/><path class="cls-5" d="M322.92,424.66c-1.18,1.55,2.86,4.79-.4,6.81l-.15.2c1.18-1.55-2.86-4.79.4-6.81l.15-.2Z" transform="translate(-246.12 -335.83)"/><path class="cls-5" d="M320.39,430.16c-.89,1.51,3.06,4,.37,6.13l-.11.2c.89-1.51-3.06-4-.37-6.13l.11-.2Z" transform="translate(-246.12 -335.83)"/><path class="cls-5" d="M318.42,435.26c-.66,1.43,3.09,3.29.87,5.46l-.08.18c.66-1.43-3.09-3.29-.87-5.46l.08-.18Z" transform="translate(-246.12 -335.83)"/><path class="cls-5" d="M317.31,440.18c-.66,1.43,3.09,3.29.87,5.46l-.08.19c.66-1.43-3.09-3.29-.87-5.46l.08-.18Z" transform="translate(-246.12 -335.83)"/><path class="cls-5" d="M316.12,445.37c-.34,1.37,3.29,2.38,1.7,4.68l0,.18c.34-1.37-3.29-2.38-1.7-4.68l0-.18Z" transform="translate(-246.12 -335.83)"/><path class="cls-5" d="M325.63,435c-.56,1.66-5,.29-4.87,3.74l-.07.21c.56-1.66,5-.29,4.87-3.74l.07-.21Z" transform="translate(-246.12 -335.83)"/><path class="cls-5" d="M323.58,439.24c-.41,1.52-4.48.53-4.18,3.62l-.06.19c.41-1.52,4.48-.53,4.18-3.62l.06-.19Z" transform="translate(-246.12 -335.83)"/><path class="cls-5" d="M322.06,444.09c-.37,1.37-4,.48-3.76,3.26l0,.18c.37-1.37,4-.48,3.76-3.26l0-.18Z" transform="translate(-246.12 -335.83)"/><path class="cls-5" d="M320.43,449.67c-.31,1.24-3.62.5-3.33,3l0,.16c.31-1.24,3.62-.5,3.33-3l0-.16Z" transform="translate(-246.12 -335.83)"/><path class="cls-5" d="M338,420c-1.65,1.37-5.4-2.92-7.48.76l-.21.17c1.65-1.37,5.4,2.92,7.48-.76L338,420Z" transform="translate(-246.12 -335.83)"/><path class="cls-5" d="M334.39,423.47c-1.38,1.51-5.48-2.06-7,1.69l-.18.19c1.38-1.51,5.48,2.06,7-1.69l.18-.19Z" transform="translate(-246.12 -335.83)"/><path class="cls-5" d="M331.18,427.22c-1.21,1.51-5.32-1.61-6.5,2l-.16.19c1.21-1.51,5.32,1.61,6.5-2l.16-.19Z" transform="translate(-246.12 -335.83)"/><path class="cls-5" d="M328.15,431.28c-1,1.45-4.91-1-5.68,2.34l-.13.19c1-1.45,4.91,1,5.68-2.34l.13-.19Z" transform="translate(-246.12 -335.83)"/><path class="cls-5" d="M357.36,413.93c-2.93.2-3.66-7.59-8.93-5.17l-.38,0c2.93-.2,3.66,7.59,8.93,5.17l.38,0Z" transform="translate(-246.12 -335.83)"/><path class="cls-5" d="M352,414.66c-2.6.48-4.06-6.41-8.52-3.69l-.34.06c2.6-.48,4.06,6.41,8.52,3.69l.34-.06Z" transform="translate(-246.12 -335.83)"/><path class="cls-5" d="M347,416.23c-2.28.66-4.21-5.37-8-2.55l-.3.08c2.28-.66,4.21,5.37,8,2.55l.3-.08Z" transform="translate(-246.12 -335.83)"/><path class="cls-5" d="M362.75,413.68c-2.93-.22-2.54-8-8.1-6.4l-.38,0c2.93.22,2.54,8,8.1,6.4l.38,0Z" transform="translate(-246.12 -335.83)"/><path class="cls-5" d="M342.23,417.9c-1.92.94-4.56-4.11-7.45-1l-.25.12c1.92-.94,4.56,4.11,7.45,1l.25-.12Z" transform="translate(-246.12 -335.83)"/><path class="cls-6" d="M316.63,419.41c3.79-17.48,11.8-25.36,12.77-27.26h0a2.64,2.64,0,0,0-2.56-3,2.55,2.55,0,0,1-1.88-1.12,3.9,3.9,0,0,0-3-1.63,3.22,3.22,0,0,1-2.41-.89,3.86,3.86,0,0,0-3.89-1,2.07,2.07,0,0,1-2.21-.55,2.89,2.89,0,0,0-3.64-.55,2.49,2.49,0,0,1-2.52,0,3.49,3.49,0,0,0-3.54-.06,2.93,2.93,0,0,1-2.59.33,3.43,3.43,0,0,0-3.26.53,2.77,2.77,0,0,1-2.22.38,3.11,3.11,0,0,0-3.16.87,2.6,2.6,0,0,1-2.15.89,2.46,2.46,0,0,0-2.18,1,3.11,3.11,0,0,1-2.18,1,3.13,3.13,0,0,0-2.62,3.92h0c.24,1.22,9,9.14,11.77,26.38" transform="translate(-246.12 -335.83)"/><path class="cls-4" d="M313.15,420.45" transform="translate(-246.12 -335.83)"/><path class="cls-4" d="M325.49,389.41" transform="translate(-246.12 -335.83)"/><path class="cls-7" d="M320.64,386.23c-7.82,17.36-8.71,21.45-9.93,35" transform="translate(-246.12 -335.83)"/><path class="cls-4" d="M308.69,419.48" transform="translate(-246.12 -335.83)"/><path class="cls-4" d="M314.13,385.49" transform="translate(-246.12 -335.83)"/><path class="cls-7" d="M308.56,383.78c-1.22,20-2.31,30.5-1.82,34.91" transform="translate(-246.12 -335.83)"/><path class="cls-4" d="M305.14,418.86" transform="translate(-246.12 -335.83)"/><path class="cls-4" d="M302.39,385.13" transform="translate(-246.12 -335.83)"/><path class="cls-7" d="M296.75,384.76c5.13,16.87,6.92,32.45,6.68,35.14" transform="translate(-246.12 -335.83)"/><path class="cls-4" d="M301.17,422" transform="translate(-246.12 -335.83)"/><path class="cls-4" d="M291.76,386.84" transform="translate(-246.12 -335.83)"/><path class="cls-7" d="M298.23,419.48A67.06,67.06,0,0,0,287.17,388" transform="translate(-246.12 -335.83)"/><path class="cls-8" d="M264.48,353.61c8.07,5.62,15.4,11.6,21,23" transform="translate(-246.12 -335.83)"/><path class="cls-7" d="M278.47,343.37c9.78,13.2,12.72,18.95,16.14,28" transform="translate(-246.12 -335.83)"/><path class="cls-7" d="M285.68,339.58c5.92,12.25,10.38,22.63,11.48,30.94" transform="translate(-246.12 -335.83)"/><path class="cls-7" d="M301.75,337.19c2,13,2.44,27.4,2.69,32.41" transform="translate(-246.12 -335.83)"/><path class="cls-7" d="M310.63,337.21c-1.47,4.16-3.34,24.07-2.85,32.38" transform="translate(-246.12 -335.83)"/><path class="cls-7" d="M326.11,339.93c-6.53,11.13-10,27.6-10.44,30.34" transform="translate(-246.12 -335.83)"/><path class="cls-7" d="M334.45,343.72c-7.82,7.58-12,18.46-14.68,27.75" transform="translate(-246.12 -335.83)"/><path class="cls-7" d="M348,353.79C340.38,358.92,334,365,327.43,376" transform="translate(-246.12 -335.83)"/><path class="cls-7" d="M353.44,360.71c-9,3.42-17.36,11.49-22.25,17.85" transform="translate(-246.12 -335.83)"/><path class="cls-7" d="M259.41,360.49c13.2,6.36,16.62,9.66,23.47,18.21" transform="translate(-246.12 -335.83)"/><path class="cls-4" d="M271.76,347.37c12,10.51,21.58,30.3,22.56,37.15" transform="translate(-246.12 -335.83)"/><path class="cls-4" d="M294.32,338.19c6.6,23.23,7.94,42.65,7.7,45.59" transform="translate(-246.12 -335.83)"/><path class="cls-4" d="M318.16,338.07c-5.38,14.91-8.07,43.09-7.33,45" transform="translate(-246.12 -335.83)"/><path class="cls-4" d="M341.7,348.35c-11.25,8.07-21.22,27.85-22.44,36.9" transform="translate(-246.12 -335.83)"/><path class="cls-4" d="M253.27,368.5c8.67-1.82,26.4,9.29,30.93,21.15" transform="translate(-246.12 -335.83)"/><path class="cls-4" d="M357.85,368c-14.55,4-21.47,12.26-29.05,21.8" transform="translate(-246.12 -335.83)"/></svg>